<svg width="51" height="51" fill="none" xmlns="http://www.w3.org/2000/svg"><path d="M43.714 0H7.286A7.286 7.286 0 000 7.286v36.428A7.286 7.286 0 007.286 51h36.428A7.286 7.286 0 0051 43.714V7.286A7.286 7.286 0 0043.714 0z" fill="#E9A21A"/><path d="M7.286 0H25.5v30.964L32.345 51H7.285A7.286 7.286 0 010 43.714V7.286A7.286 7.286 0 017.286 0z" fill="#313E77"/><path d="M49.179 7.652h-5.004V7.05h-.395V5.448h-.59V7.25h-.592v-.4H31.766v-.4h-1.184l-2.403.6-.196-1.201 1.418-.802V3.005l-.198-.4-.197-.401v-.601C28.453.8 26.484 0 25.42 0c-1.104 0-2.09.12-3.191 1.803-1.104 1.683-.395 3.645-.395 3.645V6.45c-.512-.441-1.616-.601-1.616-.601-2.914 0-4.215 4.528-4.215 6.05 0 1.521.197 2.643.197 2.643h-1.616c-.512 0-.592 1.082-.592 2.204-.038 1.122-.353 2.885-.197 3.246.119.32 1.42.4 1.42.4s-.356.161-.79.802c-.473.68 0 2.443 0 2.443v2.845l-.274.16-.394.4v.602l.197.4-.197.602v.801l.394.601s-.159 1.04-.394 2.204c-.236 1.202-.198 4.244-.198 4.244-.55.042-.59.801-.59.801s-.119.163-.79 1.203c-.71 1.041-.904 2.083-.983 2.845-.118.761-.632 1.322-1.184 2.203-.59.882.396 2.004.396 2.004-1.026 2.523-1.26 4.326-1.3 5.408h3.82a6.994 6.994 0 01-.315-2.004c0-1.122.986-3.043.986-3.043l.788-.2.197-.802c.157-.681.867-2.124 1.42-3.246.51-1.122 0-1.803 0-1.803l.392-1.002.59-.6.79-1.003.591-.801.197-1.002s.433-1.32.59-2.202c.159-.922 1.42-2.204 1.42-2.204l.196-1.002.985 1.603 1.182.2 2.601 4.248h1.417l.396.4v1.804l-.592.801.395 3.044.197 2.204.393.4.393 3.044-.59.401L27.351 51h7.8v-.16l-.196-.601-.789-.401-.983-.4-2.011-2.205.197-2.843.395-.801v-1.403l-.395-.801.395-2.004.197-3.845-.396-.2v-1.202h-.393s-.789-2.285-1.182-3.447c-.434-1.16-1.89-3.244-2.601-3.845-.709-.6-.747-1.642-.787-2.003-.04-.4.393-.802.393-.802s.197.12.592.2c.394.08.394-.2.394-.2l.393-.801.394-.601.198-1.803V18.19c-.118-1.002-.985-1.403-.985-1.403l.196-.801.79.4.983.401 1.184.601 1.417.4.985-.2.984-.6.987-1.403.393-1.803.59-.2.2-.401-.2-.802v-1.803l.79-.601.196-.4.592-.401h4.608v-.6H49.1v-.921h.079v-.002zM32.749 12.3l-.592-1.202 1.616.2-1.026 1.002h.002zm1.417-1.603h-1.182l.394-.801h.788v.801z" fill="#fff"/></svg>