<svg width="27" height="19" viewBox="0 0 60 30" fill="none" xmlns="http://www.w3.org/2000/svg">
<g clip-path="url(#clip0)">
<path d="M0 0V30H60V0H0Z" fill="#012169"/>
<path d="M0 0L60 30L0 0ZM60 0L0 30Z" fill="black"/>
<path fill-rule="evenodd" clip-rule="evenodd" d="M23.2919 15.0002L-1.34155 2.68346L1.34173 -2.68311L30.0001 11.6461L58.6584 -2.68311L61.3417 2.68346L36.7083 15.0002L61.3417 27.3169L58.6584 32.6835L30.0001 18.3543L1.34173 32.6835L-1.34155 27.3169L23.2919 15.0002Z" fill="white"/>
<path d="M0 0L60 30L0 0ZM60 0L0 30Z" fill="black"/>
<path fill-rule="evenodd" clip-rule="evenodd" d="M25.528 15.0003L-0.894287 1.78913L0.894567 -1.78857L30.0001 12.7642L59.1057 -1.78857L60.8946 1.78913L34.4723 15.0003L60.8946 28.2114L59.1057 31.7891L30.0001 17.2363L0.894567 31.7891L-0.894287 28.2114L25.528 15.0003Z" fill="#C8102E"/>
<path d="M30 0V30V0ZM0 15H60Z" fill="black"/>
<path fill-rule="evenodd" clip-rule="evenodd" d="M35 20V30H25V20H0V10H25V0H35V10H60V20H35Z" fill="white"/>
<path d="M30 0V30V0ZM0 15H60Z" fill="black"/>
<path fill-rule="evenodd" clip-rule="evenodd" d="M33 18V30H27V18H0V12H27V0H33V12H60V18H33Z" fill="#C8102E"/>
</g>
<defs>
<clipPath id="clip0">
<rect width="60" height="30" fill="white"/>
</clipPath>
</defs>
</svg>
