<svg width="27" height="19" viewBox="0 0 225 150" fill="none" xmlns="http://www.w3.org/2000/svg">
<path d="M225 0H0V150H225V0Z" fill="#FF9933"/>
<path d="M225 50H0V100H225V50Z" fill="white"/>
<path d="M225 100H0V150H225V100Z" fill="#128807"/>
<path d="M112.5 95C123.546 95 132.5 86.0457 132.5 75C132.5 63.9543 123.546 55 112.5 55C101.454 55 92.5 63.9543 92.5 75C92.5 86.0457 101.454 95 112.5 95Z" fill="#000088"/>
<path d="M112.5 92.5C122.165 92.5 130 84.665 130 75C130 65.335 122.165 57.5 112.5 57.5C102.835 57.5 95 65.335 95 75C95 84.665 102.835 92.5 112.5 92.5Z" fill="white"/>
<path d="M112.5 78.5C114.433 78.5 116 76.933 116 75C116 73.067 114.433 71.5 112.5 71.5C110.567 71.5 109 73.067 109 75C109 76.933 110.567 78.5 112.5 78.5Z" fill="#000088"/>
<path d="M129.736 78.1515C130.215 78.2146 130.655 77.8773 130.718 77.3982C130.781 76.9191 130.444 76.4795 129.964 76.4165C129.485 76.3534 129.046 76.6906 128.983 77.1698C128.92 77.6489 129.257 78.0884 129.736 78.1515Z" fill="#000088"/>
<path d="M112.5 92.5L113.1 82L112.5 77L111.9 82L112.5 92.5Z" fill="#000088"/>
</svg>
