<svg width="27" height="19" viewBox="0 0 30 20" fill="none" xmlns="http://www.w3.org/2000/svg">
<path d="M0 0H30V20H0V0Z" fill="#EE1C25"/>
<path d="M5.00004 2L6.76404 7.427L2.14404 4.073H7.85604L3.23604 7.427L5.00004 2Z" fill="#FFFF00"/>
<path d="M10.3912 1.07956L10.2245 2.9744L9.24474 1.34293L10.9969 2.08798L9.14223 2.51422L10.3912 1.07956Z" fill="#FFFF00"/>
<path d="M12.7178 3.30391L11.8288 4.98554L11.559 3.10174L12.8847 4.46836L11.0099 4.14146L12.7178 3.30391Z" fill="#FFFF00"/>
<path d="M12.9395 6.65746L11.4418 7.83015L11.9639 6.00014L12.6169 7.78869L11.0386 6.72546L12.9395 6.65746Z" fill="#FFFF00"/>
<path d="M10.3529 8.0644L10.2649 9.96453L9.21836 8.37508L10.9999 9.04685L9.1645 9.54961L10.3529 8.0644Z" fill="#FFFF00"/>
</svg>
